Coordinates
version=1
nRows=43
nColumns=12
inDegrees=yes

Units are S.I. units (second, meters, Newtons, ...)
Angles are in degrees

endheader
time	SC_y	SC_z	SC_x	AC_y	AC_z	AC_x	GH_y	GH_z	GH_yy	EL_x	PS_y
       0.0              -23.54          15.75          28.53          67.78         -17.35         -15.43          144.3          40.52         -118.2          98.01          91.64
   0.01898              -23.54          15.75          28.53          67.78         -17.35         -15.42          144.3          40.52         -118.2           98.0          91.64
   0.03796              -23.54          15.75          28.53          67.77         -17.35         -15.42          144.3          40.52         -118.2          97.99          91.63
   0.05694              -23.55          15.75          28.53          67.77         -17.34         -15.41          144.2          40.52         -118.2          97.98          91.62
   0.07592              -23.55          15.75          28.53          67.76         -17.34         -15.41          144.2          40.51         -118.2          97.98          91.62
   0.09491              -23.56          15.76          28.53          67.76         -17.34          -15.4          144.2          40.51         -118.2          97.97          91.61
    0.1139              -23.56          15.76          28.52          67.75         -17.34          -15.4          144.1          40.51         -118.2          97.96           91.6
    0.1329              -23.56          15.76          28.52          67.75         -17.34         -15.39          144.1          40.51         -118.2          97.95          91.59
    0.1518              -23.57          15.76          28.52          67.74         -17.33         -15.38          144.1           40.5         -118.2          97.94          91.59
    0.1708              -23.57          15.76          28.52          67.73         -17.33         -15.37          144.0           40.5         -118.2          97.92          91.58
    0.1898              -23.58          15.76          28.51          67.73         -17.33         -15.37          144.0           40.5         -118.2          97.91          91.57
    0.2088              -23.59          15.77          28.51          67.72         -17.33         -15.36          143.9           40.5         -118.3           97.9          91.56
    0.2278              -23.59          15.77          28.51          67.71         -17.32         -15.35          143.9          40.49         -118.3          97.88          91.55
    0.2468               -23.6          15.77          28.51           67.7         -17.32         -15.34          143.8          40.49         -118.3          97.87          91.53
    0.2657              -23.61          15.77           28.5          67.69         -17.32         -15.33          143.7          40.48         -118.3          97.85          91.52
    0.2847              -23.62          15.78           28.5          67.68         -17.31         -15.31          143.6          40.48         -118.3          97.83           91.5
    0.3037              -23.63          15.78           28.5          67.67         -17.31          -15.3          143.6          40.48         -118.3          97.81          91.49
    0.3227              -23.64          15.78          28.49          67.65          -17.3         -15.29          143.5          40.47         -118.3          97.79          91.47
    0.3417              -23.65          15.79          28.49          67.64          -17.3         -15.27          143.4          40.46         -118.4          97.77          91.45
    0.3606              -23.66          15.79          28.48          67.62         -17.29         -15.25          143.3          40.46         -118.4          97.74          91.43
    0.3796              -23.67           15.8          28.48          67.61         -17.29         -15.24          143.2          40.45         -118.4          97.71          91.41
    0.3986              -23.69           15.8          28.47          67.59         -17.28         -15.21          143.0          40.44         -118.4          97.68          91.38
    0.4176               -23.7          15.81          28.46          67.57         -17.27         -15.19          142.9          40.44         -118.5          97.65          91.36
    0.4366              -23.72          15.81          28.46          67.55         -17.27         -15.17          142.8          40.43         -118.5          97.61          91.33
    0.4555              -23.74          15.82          28.45          67.52         -17.26         -15.14          142.6          40.42         -118.5          97.56          91.29
    0.4745              -23.76          15.83          28.44          67.49         -17.25         -15.11          142.4          40.41         -118.6          97.52          91.25
    0.4935              -23.79          15.83          28.43          67.46         -17.24         -15.07          142.2          40.39         -118.6          97.46          91.21
    0.5125              -23.81          15.84          28.42          67.42         -17.23         -15.03          141.9          40.38         -118.7           97.4          91.16
    0.5315              -23.85          15.85           28.4          67.38         -17.21         -14.99          141.7          40.36         -118.7          97.33          91.11
    0.5505              -23.88          15.87          28.39          67.34          -17.2         -14.94          141.4          40.35         -118.8          97.26          91.05
    0.5694              -23.92          15.88          28.37          67.28         -17.18         -14.88          141.0          40.33         -118.8          97.17          90.98
    0.5884              -23.97          15.89          28.35          67.22         -17.16         -14.81          140.6           40.3         -118.9          97.07           90.9
    0.6074              -24.02          15.91          28.33          67.15         -17.13         -14.74          140.1          40.27         -119.0          96.95          90.81
    0.6264              -24.09          15.93           28.3          67.07          -17.1         -14.65          139.6          40.24         -119.1          96.81           90.7
    0.6454              -24.16          15.96          28.27          66.98         -17.07         -14.54          139.0          40.21         -119.3          96.65          90.57
    0.6643              -24.24          15.99          28.24          66.87         -17.03         -14.42          138.2          40.16         -119.4          96.47          90.42
    0.6833              -24.35          16.02          28.19          66.73         -16.99         -14.28          137.3          40.11         -119.6          96.24          90.25
    0.7023              -24.47          16.06          28.14          66.58         -16.93          -14.1          136.3          40.05         -119.8          95.97          90.04
    0.7213              -24.62          16.11          28.08          66.38         -16.87         -13.89          135.0          39.97         -120.1          95.65          89.78
    0.7403               -24.8          16.17           28.0          66.15         -16.79         -13.63          133.4          39.88         -120.4          95.26          89.47
    0.7592              -25.02          16.25          27.91          65.86         -16.69         -13.31          131.5          39.77         -120.8          94.77          89.08
    0.7782               -25.3          16.34          27.79           65.5         -16.56         -12.92          129.1          39.62         -121.3          94.16           88.6
    0.7972              -25.66          16.46          27.65          65.04         -16.41         -12.41          126.0          39.44         -121.9          93.39          87.99
